<svg width="80" height="80" viewBox="0 0 80 80" fill="none" xmlns="http://www.w3.org/2000/svg">
<path fill-rule="evenodd" clip-rule="evenodd" d="M73.3333 40C73.3333 58.4095 58.4095 73.3333 40 73.3333C21.5905 73.3333 6.66667 58.4095 6.66667 40C6.66667 21.5905 21.5905 6.66666 40 6.66666C58.4095 6.66666 73.3333 21.5905 73.3333 40ZM53.4344 29.8989C54.4108 30.8752 54.4108 32.4581 53.4344 33.4344L36.7678 50.1011C35.7915 51.0774 34.2085 51.0774 33.2322 50.1011L26.5656 43.4344C25.5893 42.4581 25.5893 40.8752 26.5656 39.8989C27.5419 38.9226 29.1248 38.9226 30.1011 39.8989L35 44.7978L42.4495 37.3483L49.8989 29.8989C50.8752 28.9226 52.4581 28.9226 53.4344 29.8989Z" fill="url(#paint0_linear_173_12410)"/>
<defs>
<linearGradient id="paint0_linear_173_12410" x1="40" y1="6.66666" x2="40" y2="73.3333" gradientUnits="userSpaceOnUse">
<stop stop-color="#55F177"/>
<stop offset="1" stop-color="#0EB815"/>
</linearGradient>
</defs>
</svg>
