<svg width="80" height="80" viewBox="0 0 80 80" fill="none" xmlns="http://www.w3.org/2000/svg">
<path fill-rule="evenodd" clip-rule="evenodd" d="M73.3333 40C73.3333 58.4095 58.4095 73.3333 40 73.3333C21.5905 73.3333 6.66666 58.4095 6.66666 40C6.66666 21.5905 21.5905 6.66666 40 6.66666C58.4095 6.66666 73.3333 21.5905 73.3333 40ZM29.8988 29.8988C30.8751 28.9225 32.458 28.9225 33.4343 29.8988L39.9999 36.4644L46.5654 29.8989C47.5417 28.9226 49.1246 28.9226 50.101 29.8989C51.0773 30.8752 51.0773 32.4581 50.101 33.4344L43.5354 40L50.1009 46.5654C51.0772 47.5417 51.0772 49.1246 50.1009 50.101C49.1246 51.0773 47.5417 51.0773 46.5653 50.101L39.9999 43.5355L33.4344 50.101C32.458 51.0773 30.8751 51.0773 29.8988 50.101C28.9225 49.1247 28.9225 47.5418 29.8988 46.5655L36.4644 40L29.8988 33.4344C28.9224 32.458 28.9224 30.8751 29.8988 29.8988Z" fill="url(#paint0_linear_173_12402)"/>
<defs>
<linearGradient id="paint0_linear_173_12402" x1="40" y1="6.66666" x2="40" y2="73.3333" gradientUnits="userSpaceOnUse">
<stop stop-color="#FF8181"/>
<stop offset="1" stop-color="#D22020"/>
</linearGradient>
</defs>
</svg>
