<svg width="80" height="80" viewBox="0 0 80 80" fill="none" xmlns="http://www.w3.org/2000/svg">
<path fill-rule="evenodd" clip-rule="evenodd" d="M17.7057 35.8716C27.4336 18.6239 32.2975 10 40 10C47.7025 10 52.5664 18.6239 62.2943 35.8716L63.5065 38.0209C71.5903 52.3537 75.6322 59.5201 71.9791 64.76C68.3261 70 59.2881 70 41.2122 70H38.7878C20.7119 70 11.6739 70 8.02085 64.76C4.3678 59.5201 8.4097 52.3537 16.4935 38.0209L17.7057 35.8716ZM40 24.1667C41.3807 24.1667 42.5 25.286 42.5 26.6667V43.3333C42.5 44.714 41.3807 45.8333 40 45.8333C38.6193 45.8333 37.5 44.714 37.5 43.3333V26.6667C37.5 25.286 38.6193 24.1667 40 24.1667ZM40 56.6667C41.8409 56.6667 43.3333 55.1743 43.3333 53.3333C43.3333 51.4924 41.8409 50 40 50C38.159 50 36.6667 51.4924 36.6667 53.3333C36.6667 55.1743 38.159 56.6667 40 56.6667Z" fill="url(#paint0_linear_173_12393)"/>
<defs>
<linearGradient id="paint0_linear_173_12393" x1="40" y1="10" x2="40" y2="70" gradientUnits="userSpaceOnUse">
<stop stop-color="#FFC962"/>
<stop offset="1" stop-color="#E5A01D"/>
</linearGradient>
</defs>
</svg>
