<svg width="12" height="12" viewBox="0 0 12 12" fill="none" xmlns="http://www.w3.org/2000/svg">
<g clip-path="url(#clip0_26_34)">
<path d="M2.56006 4.76463L6.426 0.338867L10.2919 4.76463H2.56006Z" fill="#7F4DEC"/>
<path d="M2.79868 4.98305C3.23532 4.48515 3.6686 3.98725 4.10524 3.48936C4.8005 2.69532 5.4924 1.90129 6.18767 1.10725C6.34889 0.925017 6.50675 0.742779 6.66797 0.557288C6.51011 0.557288 6.35225 0.557288 6.19439 0.557288C6.63102 1.05519 7.0643 1.55308 7.50094 2.05098C8.1962 2.84502 8.88811 3.63905 9.58337 4.43308C9.74459 4.61532 9.90245 4.79756 10.0637 4.98305C10.1443 4.79756 10.2215 4.61207 10.3021 4.42658C9.43223 4.42658 8.55895 4.42658 7.68903 4.42658C6.30187 4.42658 4.9147 4.42658 3.52417 4.42658C3.20509 4.42658 2.88601 4.42658 2.57029 4.42658C2.13701 4.42658 2.13701 5.07742 2.57029 5.07742C3.4402 5.07742 4.31348 5.07742 5.1834 5.07742C6.57057 5.07742 7.95773 5.07742 9.34826 5.07742C9.66734 5.07742 9.98642 5.07742 10.3021 5.07742C10.6111 5.07742 10.722 4.72922 10.5406 4.52095C10.104 4.02305 9.6707 3.52515 9.23406 3.02725C8.5388 2.23322 7.84689 1.43919 7.15163 0.645153C6.99041 0.462915 6.83255 0.280678 6.67133 0.0951864C6.56049 -0.0317288 6.30522 -0.0317288 6.19774 0.0951864C5.76111 0.593085 5.32783 1.09098 4.89119 1.58888C4.19593 2.38292 3.50402 3.17695 2.80876 3.97098C2.64754 4.15322 2.48968 4.33546 2.32846 4.52095C2.2109 4.65437 2.19411 4.84963 2.32846 4.9798C2.44265 5.1002 2.68113 5.11973 2.79868 4.98305Z" fill="#7F4DEC"/>
<path d="M2.56006 7.23853L6.426 11.6642L10.2919 7.23853H2.56006Z" fill="#E2D5FE"/>
<path d="M2.32487 7.47933C2.7615 7.97723 3.19478 8.47513 3.63142 8.97303C4.32669 9.76707 5.01859 10.5611 5.71386 11.3551C5.87508 11.5374 6.03294 11.7196 6.19416 11.9051C6.305 12.032 6.56026 12.032 6.66774 11.9051C7.10438 11.4072 7.53766 10.9093 7.9743 10.4114C8.66957 9.61737 9.36147 8.82334 10.0567 8.0293C10.218 7.84706 10.3758 7.66482 10.537 7.47933C10.7184 7.27106 10.6076 6.92285 10.2986 6.92285C9.42865 6.92285 8.55537 6.92285 7.68545 6.92285C6.29828 6.92285 4.91111 6.92285 3.52058 6.92285C3.2015 6.92285 2.88242 6.92285 2.5667 6.92285C2.13342 6.92285 2.13342 7.5737 2.5667 7.5737C3.43662 7.5737 4.30989 7.5737 5.17981 7.5737C6.56698 7.5737 7.95415 7.5737 9.34468 7.5737C9.66376 7.5737 9.98284 7.5737 10.2986 7.5737C10.218 7.38821 10.1407 7.20272 10.0601 7.01723C9.62346 7.51513 9.19017 8.01303 8.75353 8.51093C8.05827 9.30497 7.36637 10.099 6.6711 10.893C6.50988 11.0753 6.35202 11.2575 6.1908 11.443C6.34866 11.443 6.50652 11.443 6.66439 11.443C6.22775 10.9451 5.79447 10.4472 5.35783 9.94931C4.66256 9.15527 3.97066 8.36123 3.27539 7.56719C3.11417 7.38496 2.95631 7.20272 2.79509 7.01723C2.67753 6.8838 2.44242 6.90007 2.32151 7.01723C2.18716 7.15065 2.20731 7.3459 2.32487 7.47933Z" fill="#E2D5FE"/>
</g>
<defs>
<clipPath id="clip0_26_34">
<rect width="12" height="12" fill="white"/>
</clipPath>
</defs>
</svg>
