<svg width="10" height="5" viewBox="0 0 10 5" fill="none" xmlns="http://www.w3.org/2000/svg">
<path d="M1.13333 0.165656L5 3.57778L8.86667 0.165656C8.9928 0.0581593 9.16173 -0.00132225 9.33707 2.23084e-05C9.51241 0.00136687 9.68014 0.0634299 9.80413 0.172844C9.92812 0.282259 9.99845 0.430271 9.99997 0.585C10.0015 0.73973 9.93409 0.888797 9.81228 1.0001L5.47481 4.82767C5.41261 4.88279 5.33858 4.92641 5.25706 4.956C5.17553 4.98559 5.08815 5.00054 5 4.99999C4.91188 5.00038 4.82455 4.98535 4.74305 4.95577C4.66155 4.92619 4.5875 4.88265 4.52519 4.82767L0.187723 1.0001C0.0659065 0.888797 -0.00149918 0.73973 2.47955e-05 0.585C0.00154781 0.430271 0.0718784 0.282259 0.195868 0.172844C0.31986 0.0634299 0.487589 0.00136687 0.66293 2.23084e-05C0.838273 -0.00132225 1.0072 0.0581593 1.13333 0.165656Z" fill="#14133E"/>
</svg>
