<svg width="55" height="53" viewBox="0 0 55 53" fill="none" xmlns="http://www.w3.org/2000/svg">
<path d="M41.25 0.145996V13.896H13.75V39.1043H0V4.72933C0.00356695 3.51485 0.487598 2.35113 1.34637 1.49236C2.20514 0.633594 3.36885 0.149563 4.58333 0.145996H41.25Z" fill="#4285F4"/>
<path d="M41.25 52.8545V39.1045H55L41.25 52.8545Z" fill="#EA4435"/>
<path d="M55 11.6045H41.25V39.1045H55V11.6045Z" fill="#FFBA00"/>
<path d="M41.25 52.8545V39.1045H13.75V52.8545H41.25Z" fill="#00AC47"/>
<path d="M55 4.72933V13.896H41.25V0.145996H50.4167C51.6311 0.149563 52.7949 0.633594 53.6536 1.49236C54.5124 2.35113 54.9964 3.51485 55 4.72933Z" fill="#0066DA"/>
<path d="M13.75 39.1045V52.8545H4.58333C3.36885 52.8509 2.20514 52.3669 1.34637 51.5081C0.487598 50.6494 0.00356695 49.4856 0 48.2712V39.1045H13.75Z" fill="#188038"/>
<path d="M26.7895 28.998C26.7895 31.0376 25.2771 33.1001 21.8625 33.1001C20.6427 33.1162 19.4405 32.8078 18.3791 32.2063L18.1958 32.0688L18.8604 30.1897L19.1583 30.373C19.9682 30.8634 20.8929 31.1321 21.8396 31.1522C22.2062 31.1756 22.5738 31.1247 22.9203 31.0027C23.2669 30.8806 23.5852 30.6898 23.8562 30.4418C24.0505 30.2473 24.2018 30.0142 24.3005 29.7577C24.3992 29.5011 24.443 29.2267 24.4291 28.9522C24.4062 27.2793 22.8708 26.6834 21.4271 26.6834H20.1896V24.8272H21.4271C22.4583 24.8272 23.9937 24.323 23.9937 22.948C23.9937 21.9168 23.2833 21.3209 22.0458 21.3209C21.1918 21.3395 20.3625 21.6106 19.6625 22.1001L19.3416 22.3293L18.7 20.5188L18.8604 20.3813C19.9063 19.7091 21.1233 19.3511 22.3666 19.3501C25.0937 19.3501 26.3083 21.023 26.3083 22.673C26.3114 23.2941 26.1387 23.9034 25.8102 24.4306C25.4818 24.9577 25.0109 25.3812 24.4521 25.6522C25.1441 25.8931 25.7425 26.3462 26.1622 26.9469C26.5818 27.5476 26.8014 28.2653 26.7895 28.998Z" fill="#4285F4"/>
<path d="M33.7104 19.5793V32.8939H31.4645V21.9168L29.3104 23.0856L28.8291 21.2064L31.9687 19.5793H33.7104Z" fill="#4285F4"/>
</svg>
