<svg width="18" height="18" viewBox="0 0 18 18" fill="none" xmlns="http://www.w3.org/2000/svg">
<path d="M10.8523 7.85225C11.0719 7.63258 11.4281 7.63258 11.6477 7.85225C11.8674 8.07192 11.8674 8.42808 11.6477 8.64775L9.39775 10.8977C9.17808 11.1174 8.82192 11.1174 8.60225 10.8977L6.35225 8.64775C6.13258 8.42808 6.13258 8.07192 6.35225 7.85225C6.57192 7.63258 6.92808 7.63258 7.14775 7.85225L8.4375 9.142V3C8.4375 2.68934 8.68934 2.4375 9 2.4375C9.31066 2.4375 9.5625 2.68934 9.5625 3V9.142L10.8523 7.85225Z" fill="#6C7785"/>
<path d="M15.5625 9C15.5625 8.68934 15.3107 8.4375 15 8.4375C14.6893 8.4375 14.4375 8.68934 14.4375 9C14.4375 12.003 12.003 14.4375 9 14.4375C5.99695 14.4375 3.5625 12.003 3.5625 9C3.5625 8.68934 3.31066 8.4375 3 8.4375C2.68934 8.4375 2.4375 8.68934 2.4375 9C2.4375 12.6244 5.37563 15.5625 9 15.5625C12.6244 15.5625 15.5625 12.6244 15.5625 9Z" fill="#6C7785"/>
<path d="M10.8523 7.85225C11.0719 7.63258 11.4281 7.63258 11.6477 7.85225C11.8674 8.07192 11.8674 8.42808 11.6477 8.64775L9.39775 10.8977C9.17808 11.1174 8.82192 11.1174 8.60225 10.8977L6.35225 8.64775C6.13258 8.42808 6.13258 8.07192 6.35225 7.85225C6.57192 7.63258 6.92808 7.63258 7.14775 7.85225L8.4375 9.142V3C8.4375 2.68934 8.68934 2.4375 9 2.4375C9.31066 2.4375 9.5625 2.68934 9.5625 3V9.142L10.8523 7.85225Z" stroke="#6C7785"/>
<path d="M15.5625 9C15.5625 8.68934 15.3107 8.4375 15 8.4375C14.6893 8.4375 14.4375 8.68934 14.4375 9C14.4375 12.003 12.003 14.4375 9 14.4375C5.99695 14.4375 3.5625 12.003 3.5625 9C3.5625 8.68934 3.31066 8.4375 3 8.4375C2.68934 8.4375 2.4375 8.68934 2.4375 9C2.4375 12.6244 5.37563 15.5625 9 15.5625C12.6244 15.5625 15.5625 12.6244 15.5625 9Z" stroke="#6C7785"/>
</svg>
