<?xml version="1.0" encoding="UTF-8"?>
<svg version="1.1" xmlns="http://www.w3.org/2000/svg" width="512" height="512">
<path d="M0 0 C4.91893774 4.33353093 9.77369371 8.71274158 14.52734375 13.2265625 C15.06149902 13.73203613 15.5956543 14.23750977 16.14599609 14.75830078 C24.44404761 22.66672611 31.70349525 31.02385171 38.52734375 40.2265625 C38.95112305 40.78956055 39.37490234 41.35255859 39.81152344 41.93261719 C76.81711047 91.2259933 92.48749745 154.77368736 84.00610352 215.76342773 C78.56194032 250.30704771 66.55495652 284.38145191 46.52734375 313.2265625 C46.00946289 313.97599121 45.49158203 314.72541992 44.95800781 315.49755859 C37.44635359 326.26075492 29.387848 336.18563932 20.18261719 345.54052734 C18.59609359 347.15653501 17.0325888 348.79196011 15.47265625 350.43359375 C8.38885835 357.80612071 0.72297498 364.13017107 -7.47265625 370.2265625 C-8.03710449 370.65179199 -8.60155273 371.07702148 -9.18310547 371.51513672 C-39.87526731 394.55418807 -75.70609899 408.8925487 -113.47265625 415.2265625 C-114.68179687 415.4328125 -115.8909375 415.6390625 -117.13671875 415.8515625 C-172.89806503 424.15629587 -234.1994738 410.35475895 -280.47265625 378.2265625 C-281.22208496 377.70868164 -281.97151367 377.19080078 -282.74365234 376.65722656 C-293.50684867 369.14557234 -303.43173307 361.08706675 -312.78662109 351.88183594 C-314.40262876 350.29531234 -316.03805386 348.73180755 -317.6796875 347.171875 C-325.05221446 340.0880771 -331.37626482 332.42219373 -337.47265625 324.2265625 C-338.11050049 323.37989014 -338.11050049 323.37989014 -338.76123047 322.51611328 C-361.79101358 291.83629842 -376.22798083 255.99642903 -382.47265625 218.2265625 C-382.6010791 217.50339844 -382.72950195 216.78023438 -382.86181641 216.03515625 C-392.78669953 158.40142936 -376.22967621 95.71642163 -343.35546875 48.1640625 C-341.43952554 45.48025099 -339.47777908 42.84424831 -337.47265625 40.2265625 C-336.85003906 39.41058594 -336.22742188 38.59460938 -335.5859375 37.75390625 C-330.24100949 30.91283206 -324.44741951 24.51537886 -318.47265625 18.2265625 C-317.96573242 17.69095703 -317.45880859 17.15535156 -316.93652344 16.60351562 C-309.02963777 8.30695811 -300.67364137 1.04913141 -291.47265625 -5.7734375 C-290.9096582 -6.1972168 -290.34666016 -6.62099609 -289.76660156 -7.05761719 C-256.89951489 -31.73163898 -218.15062443 -46.59575294 -177.47265625 -51.7734375 C-176.75513184 -51.86915039 -176.03760742 -51.96486328 -175.29833984 -52.06347656 C-113.59269428 -59.34137769 -47.48595921 -40.24233832 0 0 Z M-249.47265625 -5.7734375 C-250.46007812 -5.26167969 -251.4475 -4.74992187 -252.46484375 -4.22265625 C-269.63728883 4.80139067 -284.54068786 16.86477937 -298.47265625 30.2265625 C-299.42140625 31.12246094 -300.37015625 32.01835938 -301.34765625 32.94140625 C-340.53808751 70.85146831 -361.49413161 125.58794812 -362.82836914 179.56347656 C-363.08011256 214.32318793 -355.23368002 249.80929518 -338.47753906 280.38476562 C-337.44757242 282.27253733 -336.45553373 284.17730385 -335.46484375 286.0859375 C-326.6846813 302.67914818 -315.16686576 317.28320773 -302.03320312 330.63525391 C-300.62631783 332.06987192 -299.24324599 333.52774971 -297.86328125 334.98828125 C-291.29972133 341.81996045 -284.05572327 347.58404413 -276.47265625 353.2265625 C-275.4671875 353.97679687 -274.46171875 354.72703125 -273.42578125 355.5 C-227.62974564 388.36399447 -171.08473832 401.23925956 -115.48046875 392.72265625 C-93.76101205 389.14035625 -72.62384799 382.70094134 -53.23535156 372.17919922 C-51.51101324 371.24729228 -49.76926575 370.34782931 -48.02734375 369.44921875 C-30.3039101 360.21040759 -14.87221708 347.97873163 -0.47265625 334.2265625 C0.45289063 333.35386719 1.3784375 332.48117187 2.33203125 331.58203125 C9.48503887 324.66205362 15.60697734 317.20874806 21.52734375 309.2265625 C22.27628906 308.22238281 23.02523438 307.21820313 23.796875 306.18359375 C57.50755779 259.23159772 69.45237364 202.02945882 60.52734375 145.2265625 C56.80011852 123.13557095 49.22377216 101.88609617 38.52734375 82.2265625 C38.01558594 81.23914063 37.50382812 80.25171875 36.9765625 79.234375 C27.95251558 62.06192992 15.88912688 47.15853089 2.52734375 33.2265625 C1.63144531 32.2778125 0.73554688 31.3290625 -0.1875 30.3515625 C-38.00100332 -8.73904886 -92.60516651 -29.92301194 -146.50585938 -31.12915039 C-182.42028013 -31.36262959 -217.89628149 -22.95362284 -249.47265625 -5.7734375 Z " fill="#000000" transform="translate(405.47265625,73.7734375)"/>
<path d="M0 0 C3.02508145 1.73602105 5.41790069 3.83580137 7 7 C7.10269605 9.05150422 7.1395256 11.10640262 7.14717102 13.16046143 C7.15432632 14.47556198 7.16148163 15.79066254 7.16885376 17.14561462 C7.17169418 18.61172462 7.17440589 20.07783487 7.17700195 21.54394531 C7.18326546 23.08128514 7.18991216 24.61862345 7.19691467 26.15596008 C7.21433574 30.3399901 7.22487962 34.52400868 7.2331202 38.70806599 C7.23826842 41.32161216 7.24434426 43.93515477 7.25063133 46.54869843 C7.26968721 54.72432865 7.28391704 62.89994983 7.2922433 71.075598 C7.30201572 80.51570837 7.32833361 89.95558426 7.36874419 99.395612 C7.39889882 106.68995528 7.41371158 113.98423133 7.41702431 121.27863574 C7.41937571 125.63619299 7.4283475 129.99349986 7.45348549 134.3509903 C7.47675967 138.45175369 7.48100223 142.55210174 7.47072411 146.65291405 C7.47022846 148.15653807 7.47655753 149.66018249 7.49028015 151.16374397 C7.50799584 153.2201938 7.50089679 155.27515252 7.48774719 157.331604 C7.49013555 158.4812476 7.4925239 159.63089119 7.49498463 160.81537247 C6.88679092 164.72836353 5.43972651 166.91821564 3 170 C-0.71453232 171.85726616 -4.95579425 171.58501089 -9 171 C-11.82424288 168.80977082 -13.41508603 167.16982793 -15 164 C-15.10483057 161.94854888 -15.14393087 159.89364221 -15.15390015 157.83953857 C-15.16250061 156.52443802 -15.17110107 155.20933746 -15.17996216 153.85438538 C-15.18439756 152.38827554 -15.1886959 150.92216529 -15.19287109 149.45605469 C-15.20077097 147.91871454 -15.20903984 146.38137625 -15.21765137 144.84403992 C-15.24388614 139.78666966 -15.25918106 134.72929107 -15.2734375 129.671875 C-15.2787967 127.9316838 -15.28417421 126.19149266 -15.28956985 124.45130157 C-15.31120126 117.21282036 -15.32993811 109.97434139 -15.34119225 102.73583603 C-15.35743188 92.35851482 -15.39060681 81.98156804 -15.44759309 71.604388 C-15.48628542 64.31004667 -15.50582412 57.01580552 -15.51111281 49.72136426 C-15.51476745 45.36374267 -15.52680006 41.00652028 -15.55921555 36.6490097 C-15.58928375 32.54818369 -15.59561277 28.44799867 -15.58383179 24.34708595 C-15.58361094 22.84345168 -15.59192545 21.33978778 -15.60948563 19.83625603 C-15.75058232 7.05783889 -15.75058232 7.05783889 -12.58853149 3.12115479 C-8.57645896 -0.16651117 -5.12533787 -0.87482576 0 0 Z " fill="#000000" transform="translate(260,213)"/>
<path d="M0 0 C5.30020616 3.15174783 9.22263819 7.33459586 11.79296875 12.96484375 C13.52331869 20.83007076 12.47917854 27.09794769 8.48046875 34.08984375 C4.42861931 38.75619168 -0.13516206 41.68838754 -6.3515625 42.42578125 C-12.97503579 42.51258955 -18.11075124 42.14013948 -23.51953125 38.08984375 C-28.88783651 32.84083416 -31.14133114 27.49364474 -31.95703125 20.15234375 C-31.69181113 14.52746706 -29.65203841 9.41036778 -25.8359375 5.2578125 C-18.45660835 -1.26456229 -9.64671512 -3.48478236 0 0 Z " fill="#000000" transform="translate(265.51953125,128.91015625)"/>
</svg>
