<svg width="37" height="36" viewBox="0 0 37 36" fill="none" xmlns="http://www.w3.org/2000/svg">
<path fill-rule="evenodd" clip-rule="evenodd" d="M18.0508 36C27.992 36 36.0508 27.9411 36.0508 18C36.0508 8.05888 27.992 0 18.0508 0C8.10965 0 0.0507812 8.05888 0.0507812 18C0.0507812 27.9411 8.10965 36 18.0508 36ZM20.8291 13.9073C22.3634 12.3729 22.3634 9.88521 20.8291 8.3508C19.2947 6.81641 16.807 6.81641 15.2726 8.3508C13.7382 9.88521 13.7382 12.3729 15.2726 13.9073L18.0508 16.6855L20.8291 13.9073ZM22.1435 20.7783C23.6779 22.3127 26.1656 22.3127 27.7 20.7783C29.2344 19.2439 29.2344 16.7562 27.7 15.2218C26.1656 13.6874 23.6779 13.6874 22.1435 15.2218L19.3653 18.0001L22.1435 20.7783ZM20.8291 27.6493C22.3634 26.1148 22.3634 23.6271 20.8291 22.0927L18.0508 19.3145L15.2726 22.0927C13.7382 23.6271 13.7382 26.1148 15.2726 27.6493C16.807 29.1837 19.2947 29.1837 20.8291 27.6493ZM8.40156 20.7783C6.8672 19.2439 6.8672 16.7562 8.40156 15.2218C9.936 13.6874 12.4237 13.6874 13.9581 15.2218L16.7363 18.0001L13.9581 20.7783C12.4237 22.3127 9.936 22.3127 8.40156 20.7783Z" fill="#7F4DEC"/>
</svg>
