<svg width="18" height="18" viewBox="0 0 18 18" fill="none" xmlns="http://www.w3.org/2000/svg">
<path fill-rule="evenodd" clip-rule="evenodd" d="M5.44695 2.44534C5.53664 1.59783 6.25371 0.9375 7.125 0.9375H10.875C11.7463 0.9375 12.4634 1.59783 12.5531 2.44534C13.1254 2.45699 13.6202 2.4866 14.0427 2.56421C14.6112 2.66863 15.095 2.86756 15.4887 3.26126C15.9402 3.7127 16.1343 4.28111 16.2251 4.95619C16.3125 5.60641 16.3125 6.43315 16.3125 7.45885V12.0412C16.3125 13.0668 16.3125 13.8936 16.2251 14.5438C16.1343 15.2189 15.9402 15.7873 15.4887 16.2387C15.0373 16.6902 14.4689 16.8843 13.7938 16.9751C13.1436 17.0625 12.3168 17.0625 11.2912 17.0625H6.70885C5.68316 17.0625 4.85641 17.0625 4.20619 16.9751C3.53111 16.8843 2.9627 16.6902 2.51126 16.2387C2.05983 15.7873 1.86566 15.2189 1.77489 14.5438C1.68747 13.8936 1.68748 13.0668 1.6875 12.0412V7.45884C1.68748 6.43315 1.68747 5.60641 1.77489 4.95619C1.86566 4.28111 2.05983 3.7127 2.51126 3.26126C2.90496 2.86756 3.38877 2.66863 3.95726 2.56421C4.37979 2.4866 4.87464 2.45699 5.44695 2.44534ZM6.5625 3.00077C6.5625 3.00117 6.5625 3.00157 6.5625 3.00197V3.375C6.5625 3.68566 6.81434 3.9375 7.125 3.9375H10.875C11.1857 3.9375 11.4375 3.68566 11.4375 3.375V3.00197C11.4375 3.00157 11.4375 3.00117 11.4375 3.00077V2.625C11.4375 2.31434 11.1857 2.0625 10.875 2.0625H7.125C6.81434 2.0625 6.5625 2.31434 6.5625 2.625V3.00077ZM12.5513 3.57065C12.4543 4.41046 11.7408 5.0625 10.875 5.0625H7.125C6.2592 5.0625 5.54568 4.41046 5.44872 3.57065C4.91009 3.58215 4.49502 3.60925 4.16051 3.6707C3.7354 3.74878 3.48935 3.87417 3.30676 4.05676C3.09919 4.26433 2.96385 4.55576 2.88986 5.10609C2.8137 5.6726 2.8125 6.42344 2.8125 7.5V12C2.8125 13.0766 2.8137 13.8274 2.88986 14.3939C2.96385 14.9442 3.09919 15.2357 3.30676 15.4432C3.51433 15.6508 3.80576 15.7861 4.35609 15.8601C4.9226 15.9363 5.67344 15.9375 6.75 15.9375H11.25C12.3266 15.9375 13.0774 15.9363 13.6439 15.8601C14.1942 15.7861 14.4857 15.6508 14.6932 15.4432C14.9008 15.2357 15.0361 14.9442 15.1101 14.3939C15.1863 13.8274 15.1875 13.0766 15.1875 12V7.5C15.1875 6.42344 15.1863 5.6726 15.1101 5.10609C15.0361 4.55576 14.9008 4.26433 14.6932 4.05676C14.5107 3.87417 14.2646 3.74878 13.8395 3.6707C13.505 3.60925 13.0899 3.58215 12.5513 3.57065ZM4.6875 10.875C4.6875 10.5643 4.93934 10.3125 5.25 10.3125H11.25C11.5607 10.3125 11.8125 10.5643 11.8125 10.875C11.8125 11.1857 11.5607 11.4375 11.25 11.4375H5.25C4.93934 11.4375 4.6875 11.1857 4.6875 10.875ZM4.6875 13.5C4.6875 13.1893 4.93934 12.9375 5.25 12.9375H9.375C9.68566 12.9375 9.9375 13.1893 9.9375 13.5C9.9375 13.8107 9.68566 14.0625 9.375 14.0625H5.25C4.93934 14.0625 4.6875 13.8107 4.6875 13.5Z" fill="#6C7785" stroke="#6C7785" stroke-width="0.4" stroke-linecap="round"/>
</svg>
