<svg width="55" height="55" viewBox="0 0 55 55" fill="none" xmlns="http://www.w3.org/2000/svg">
<path d="M16.8652 14.5371H18.5488V17.2598H16.8652C14.1494 17.2598 11.5447 18.3386 9.6243 20.2591C7.70388 22.1795 6.625 24.7841 6.625 27.5C6.625 30.2159 7.70388 32.8205 9.6243 34.7409C11.5447 36.6614 14.1494 37.7402 16.8652 37.7402H26.5085C26.6096 37.7402 26.7008 37.6793 26.7395 37.5859C26.7782 37.4925 26.7568 37.385 26.6853 37.3135L23.8134 34.4406L25.7394 32.5146L32.3263 39.1016L25.7394 45.6885L23.8134 43.7616L26.6853 40.8897C26.7568 40.8182 26.7782 40.7106 26.7395 40.6172C26.7008 40.5238 26.6096 40.4629 26.5085 40.4629H16.8652C13.4273 40.4629 10.1301 39.0972 7.69909 36.6661C5.26807 34.2351 3.90234 30.938 3.90234 27.5C3.90234 24.062 5.26807 20.7649 7.69909 18.3339C10.1301 15.9028 13.4273 14.5371 16.8652 14.5371Z" fill="#6C7785" stroke="white" stroke-width="0.5" stroke-linejoin="round"/>
<path d="M28.3149 14.1104C28.2434 14.1819 28.222 14.2895 28.2607 14.3829C28.2994 14.4763 28.3906 14.5372 28.4917 14.5372H38.135C41.5729 14.5372 44.8701 15.9029 47.3011 18.3339C49.7321 20.765 51.0979 24.0621 51.0979 27.5001C51.0979 30.9381 49.7321 34.2352 47.3011 36.6662C44.8701 39.0973 41.5729 40.463 38.135 40.463H36.3912V37.7403H38.135C40.8508 37.7403 43.4555 36.6615 45.3759 34.741C47.2963 32.8206 48.3752 30.216 48.3752 27.5001C48.3752 24.7842 47.2963 22.1796 45.3759 20.2592C43.4555 18.3387 40.8508 17.2599 38.135 17.2599H28.4917C28.3906 17.2599 28.2994 17.3208 28.2607 17.4142C28.222 17.5076 28.2434 17.6151 28.3149 17.6866L31.1868 20.5595L29.2608 22.4855L22.6739 15.8985L29.2608 9.3116L31.1868 11.2385L28.3149 14.1104Z" fill="#6C7785" stroke="white" stroke-width="0.5" stroke-linejoin="round"/>
</svg>
