<svg width="18" height="18" viewBox="0 0 18 18" fill="none" xmlns="http://www.w3.org/2000/svg">
<g clip-path="url(#clip0_2031_917)">
<path d="M7.63633 1.5C6.42268 1.5 5.23628 1.85989 4.22717 2.53416C3.21806 3.20843 2.43155 4.16679 1.9671 5.28806C1.50266 6.40932 1.38114 7.64313 1.61791 8.83347C1.85468 10.0238 2.43911 11.1172 3.29729 11.9754C4.15547 12.8335 5.24886 13.418 6.43919 13.6547C7.62952 13.8915 8.86333 13.77 9.9846 13.3056C11.1059 12.8411 12.0642 12.0546 12.7385 11.0455C13.4128 10.0364 13.7727 8.84998 13.7727 7.63633C13.7726 6.0089 13.126 4.44817 11.9753 3.2974C10.8245 2.14664 9.26375 1.5001 7.63633 1.5Z" stroke="#727D89" stroke-width="1.6" stroke-miterlimit="10"/>
<path d="M12.2144 12.2144L16.4999 16.5" stroke="#727D89" stroke-width="1.6" stroke-miterlimit="10" stroke-linecap="round"/>
</g>
<defs>
<clipPath id="clip0_2031_917">
<rect width="18" height="18" fill="white"/>
</clipPath>
</defs>
</svg>
