<svg width="24" height="24" viewBox="0 0 24 24" fill="none" xmlns="http://www.w3.org/2000/svg">
<path fill-rule="evenodd" clip-rule="evenodd" d="M20.5 5.75C20.5 6.16421 20.1642 6.5 19.75 6.5L3.75 6.5C3.33579 6.5 3 6.16421 3 5.75C3 5.33579 3.33579 5 3.75 5L19.75 5C20.1642 5 20.5 5.33579 20.5 5.75Z" fill="#7F4DEC"/>
<path fill-rule="evenodd" clip-rule="evenodd" d="M20.75 12C20.75 12.4142 20.4142 12.75 20 12.75L4 12.75C3.58579 12.75 3.25 12.4142 3.25 12C3.25 11.5858 3.58579 11.25 4 11.25L20 11.25C20.4142 11.25 20.75 11.5858 20.75 12Z" fill="#7F4DEC"/>
<path fill-rule="evenodd" clip-rule="evenodd" d="M20.5 17.75C20.5 18.1642 20.1642 18.5 19.75 18.5L3.75 18.5C3.33579 18.5 3 18.1642 3 17.75C3 17.3358 3.33579 17 3.75 17L19.75 17C20.1642 17 20.5 17.3358 20.5 17.75Z" fill="#7F4DEC"/>
</svg>
