<svg width="22" height="22" viewBox="0 0 22 22" fill="none" xmlns="http://www.w3.org/2000/svg">
<path d="M12.8333 13.2917C12.8333 11.7729 14.0645 10.5417 15.5833 10.5417C17.1021 10.5417 18.3333 11.7729 18.3333 13.2917C18.3333 14.8105 17.1021 16.0417 15.5833 16.0417C14.0645 16.0417 12.8333 14.8105 12.8333 13.2917Z" stroke="white" stroke-width="1.5"/>
<path d="M3.66666 8.70833C3.66666 10.2271 4.89788 11.4583 6.41666 11.4583C7.93545 11.4583 9.16666 10.2271 9.16666 8.70833C9.16666 7.18955 7.93545 5.95833 6.41666 5.95833C4.89788 5.95833 3.66666 7.18955 3.66666 8.70833Z" stroke="white" stroke-width="1.5"/>
<path d="M15.5453 8.25L15.5453 1.83333" stroke="white" stroke-width="1.5" stroke-linecap="round"/>
<path d="M6.3786 13.75L6.3786 20.1667" stroke="white" stroke-width="1.5" stroke-linecap="round"/>
<path d="M15.5453 20.1667L15.5453 18.3333" stroke="white" stroke-width="1.5" stroke-linecap="round"/>
<path d="M6.3786 1.83333L6.3786 3.66667" stroke="white" stroke-width="1.5" stroke-linecap="round"/>
</svg>
