<svg width="22" height="22" viewBox="0 0 22 22" fill="none" xmlns="http://www.w3.org/2000/svg">
<path d="M10.0554 1.73525C10.3107 1.49389 10.6487 1.35941 11 1.35941C11.3513 1.35941 11.6893 1.49389 11.9446 1.73525L18.6051 8.03138C19.0176 8.4205 19.25 8.96363 19.25 9.53013V17.1889C19.25 17.7359 19.0327 18.2605 18.6459 18.6473C18.2591 19.0341 17.7345 19.2514 17.1875 19.2514H14.4375C14.1665 19.2514 13.8982 19.198 13.6479 19.0942C13.3976 18.9905 13.1701 18.8385 12.9786 18.6468C12.7871 18.4551 12.6352 18.2276 12.5316 17.9772C12.428 17.7268 12.3748 17.4585 12.375 17.1875V13.75C12.375 13.5677 12.3026 13.3928 12.1736 13.2639C12.0447 13.1349 11.8698 13.0625 11.6875 13.0625H10.3125C10.1302 13.0625 9.9553 13.1349 9.82636 13.2639C9.69743 13.3928 9.625 13.5677 9.625 13.75V17.1875C9.625 17.7345 9.4077 18.2591 9.02091 18.6459C8.63411 19.0327 8.10951 19.25 7.5625 19.25H4.8125C4.26549 19.25 3.74089 19.0327 3.35409 18.6459C2.9673 18.2591 2.75 17.7345 2.75 17.1875V9.52875C2.75 8.96225 2.98375 8.41913 3.39625 8.03L10.0554 1.7325V1.73525ZM11 2.7335L4.3395 9.031C4.27188 9.0951 4.218 9.17228 4.18113 9.25785C4.14426 9.34341 4.12516 9.43558 4.125 9.52875V17.1875C4.125 17.3698 4.19743 17.5447 4.32636 17.6736C4.4553 17.8026 4.63016 17.875 4.8125 17.875H7.5625C7.74484 17.875 7.9197 17.8026 8.04864 17.6736C8.17757 17.5447 8.25 17.3698 8.25 17.1875V13.75C8.25 13.203 8.4673 12.6784 8.85409 12.2916C9.24089 11.9048 9.76549 11.6875 10.3125 11.6875H11.6875C12.2345 11.6875 12.7591 11.9048 13.1459 12.2916C13.5327 12.6784 13.75 13.203 13.75 13.75V17.1875C13.75 17.3698 13.8224 17.5447 13.9514 17.6736C14.0803 17.8026 14.2552 17.875 14.4375 17.875H17.1875C17.3698 17.875 17.5447 17.8026 17.6736 17.6736C17.8026 17.5447 17.875 17.3698 17.875 17.1875V9.52875C17.875 9.43535 17.856 9.34292 17.8191 9.2571C17.7823 9.17129 17.7283 9.09389 17.6605 9.02963L11 2.7335Z" fill="white" stroke="white" stroke-width="0.2"/>
</svg>
