<svg width="22" height="22" viewBox="0 0 22 22" fill="none" xmlns="http://www.w3.org/2000/svg">
<path d="M11.9963 19.6054L12.6417 19.9874L12.6417 19.9874L11.9963 19.6054ZM12.4932 18.7658L11.8478 18.3838L11.8478 18.3838L12.4932 18.7658ZM9.5071 18.7658L8.86169 19.1478L8.86169 19.1478L9.5071 18.7658ZM10.004 19.6054L10.6494 19.2233L10.6494 19.2233L10.004 19.6054ZM2.18238 14.5873L2.87529 14.3003L2.87529 14.3003L2.18238 14.5873ZM7.14061 17.4088L7.12769 18.1587L7.12769 18.1587L7.14061 17.4088ZM4.66286 17.0678L4.37585 17.7607L4.37585 17.7607L4.66286 17.0678ZM19.8179 14.5873L20.5109 14.8743L20.5109 14.8743L19.8179 14.5873ZM14.8597 17.4088L14.8468 16.6589L14.8468 16.6589L14.8597 17.4088ZM17.3375 17.0678L17.6245 17.7607L17.6245 17.7607L17.3375 17.0678ZM17.9783 2.50871L17.5864 3.14819L17.5864 3.14819L17.9783 2.50871ZM19.4914 4.02186L20.1309 3.62999L20.1309 3.62999L19.4914 4.02186ZM4.02204 2.50871L3.63017 1.86923L3.63017 1.86923L4.02204 2.50871ZM2.5089 4.02186L1.86942 3.62999L1.86942 3.62999L2.5089 4.02186ZM8.61939 17.609L8.99646 16.9607L8.99646 16.9607L8.61939 17.609ZM12.6417 19.9874L13.1386 19.1478L11.8478 18.3838L11.3508 19.2233L12.6417 19.9874ZM8.86169 19.1478L9.35861 19.9874L10.6494 19.2233L10.1525 18.3838L8.86169 19.1478ZM11.3508 19.2233C11.1984 19.481 10.8019 19.481 10.6494 19.2233L9.35861 19.9874C10.0919 21.2263 11.9084 21.2263 12.6417 19.9874L11.3508 19.2233ZM9.62516 2.58331H12.3752V1.08331H9.62516V2.58331ZM19.4168 9.62498V10.5416H20.9168V9.62498H19.4168ZM2.5835 10.5416V9.62498H1.0835V10.5416H2.5835ZM1.0835 10.5416C1.0835 11.5992 1.08309 12.4299 1.12885 13.1005C1.17506 13.7779 1.27087 14.3465 1.48947 14.8743L2.87529 14.3003C2.74501 13.9857 2.66637 13.5994 2.62537 12.9984C2.5839 12.3907 2.5835 11.6197 2.5835 10.5416H1.0835ZM7.15353 16.6589C6.00271 16.6391 5.41049 16.5656 4.94988 16.3749L4.37585 17.7607C5.1258 18.0713 5.97702 18.1389 7.12769 18.1587L7.15353 16.6589ZM1.48947 14.8743C2.03077 16.1811 3.06903 17.2194 4.37585 17.7607L4.94988 16.3749C4.0106 15.9858 3.26435 15.2395 2.87529 14.3003L1.48947 14.8743ZM19.4168 10.5416C19.4168 11.6197 19.4164 12.3907 19.375 12.9984C19.334 13.5994 19.2553 13.9857 19.125 14.3003L20.5109 14.8743C20.7295 14.3465 20.8253 13.7779 20.8715 13.1005C20.9172 12.4299 20.9168 11.5992 20.9168 10.5416H19.4168ZM14.8726 18.1587C16.0233 18.1389 16.8745 18.0713 17.6245 17.7607L17.0505 16.3749C16.5898 16.5656 15.9976 16.6391 14.8468 16.6589L14.8726 18.1587ZM19.125 14.3003C18.736 15.2395 17.9897 15.9858 17.0504 16.3749L17.6245 17.7607C18.9313 17.2194 19.9696 16.1811 20.5109 14.8743L19.125 14.3003ZM12.3752 2.58331C13.89 2.58331 14.9735 2.5841 15.8177 2.66437C16.6507 2.74358 17.173 2.89484 17.5864 3.14819L18.3702 1.86923C17.6814 1.44718 16.9025 1.26075 15.9596 1.17111C15.028 1.08252 13.861 1.08331 12.3752 1.08331V2.58331ZM20.9168 9.62498C20.9168 8.13918 20.9176 6.97216 20.829 6.04049C20.7394 5.09767 20.553 4.31871 20.1309 3.62999L18.852 4.41373C19.1053 4.82716 19.2566 5.34944 19.3358 6.18248C19.416 7.02667 19.4168 8.11013 19.4168 9.62498H20.9168ZM17.5864 3.14819C18.1022 3.46427 18.5359 3.89794 18.852 4.41374L20.1309 3.62999C19.6911 2.91236 19.0878 2.309 18.3702 1.86923L17.5864 3.14819ZM9.62516 1.08331C8.13936 1.08331 6.97235 1.08252 6.04068 1.17111C5.09785 1.26075 4.31889 1.44718 3.63017 1.86923L4.41392 3.14819C4.82735 2.89484 5.34963 2.74358 6.18266 2.66437C7.02685 2.5841 8.11032 2.58331 9.62516 2.58331V1.08331ZM2.5835 9.62498C2.5835 8.11013 2.58429 7.02667 2.66455 6.18248C2.74376 5.34944 2.89503 4.82716 3.14838 4.41373L1.86942 3.62999C1.44737 4.31871 1.26093 5.09767 1.17129 6.04049C1.0827 6.97216 1.0835 8.13918 1.0835 9.62498H2.5835ZM3.63017 1.86923C2.91254 2.309 2.30918 2.91236 1.86942 3.62999L3.14838 4.41373C3.46446 3.89794 3.89812 3.46427 4.41392 3.14819L3.63017 1.86923ZM10.1525 18.3838C9.967 18.0704 9.80192 17.7899 9.64089 17.569C9.47064 17.3354 9.27268 17.1213 8.99646 16.9607L8.24231 18.2573C8.27565 18.2767 8.32883 18.3155 8.42869 18.4525C8.53777 18.6021 8.66176 18.8101 8.86169 19.1478L10.1525 18.3838ZM7.12769 18.1587C7.53135 18.1657 7.7829 18.1707 7.97368 18.1919C8.15055 18.2115 8.21145 18.2394 8.24232 18.2573L8.99646 16.9607C8.71777 16.7986 8.42902 16.7331 8.13877 16.701C7.86241 16.6704 7.52935 16.6654 7.15353 16.6589L7.12769 18.1587ZM13.1386 19.1478C13.3385 18.8101 13.4625 18.6021 13.5716 18.4525C13.6715 18.3155 13.7246 18.2767 13.758 18.2573L13.0038 16.9607C12.7276 17.1213 12.5296 17.3354 12.3594 17.569C12.1984 17.7899 12.0333 18.0704 11.8478 18.3838L13.1386 19.1478ZM14.8468 16.6589C14.4709 16.6654 14.1379 16.6704 13.8615 16.701C13.5713 16.7331 13.2825 16.7986 13.0038 16.9607L13.758 18.2573C13.7888 18.2394 13.8497 18.2115 14.0266 18.1919C14.2174 18.1707 14.4689 18.1657 14.8726 18.1587L14.8468 16.6589Z" fill="white"/>
<path d="M7.3335 10.0833H7.34175M10.9919 10.0833H11.0002M14.6586 10.0833H14.6668" stroke="white" stroke-width="2" stroke-linecap="round" stroke-linejoin="round"/>
</svg>
