<svg width="40" height="40" viewBox="0 0 40 40" fill="none" xmlns="http://www.w3.org/2000/svg">
<rect width="40" height="40" rx="20" fill="#7F4DEC"/>
<mask id="mask0_173_11483" style="mask-type:alpha" maskUnits="userSpaceOnUse" x="9" y="8" width="24" height="24">
<rect x="9" y="8" width="24" height="24" fill="#D9D9D9"/>
</mask>
<g mask="url(#mask0_173_11483)">
<path d="M31.5556 20.0148C31.5556 19.5525 31.2844 19.1435 30.8599 18.9635L11.9765 11.0276C11.0526 10.5986 10.0434 11.6596 10.4998 12.562L13.7398 19.4828C13.8561 19.4835 25.3728 19.482 25.9039 19.4828C26.1958 19.4828 26.4351 19.7221 26.4351 20.014C26.4351 20.3059 26.1958 20.5452 25.9039 20.5452C25.3719 20.5452 13.8544 20.5445 13.7398 20.5452L10.4998 27.472C10.0404 28.3715 11.0569 29.4325 11.9764 29.002L30.859 21.0669C31.2843 20.8861 31.5548 20.4779 31.5548 20.0155L31.5556 20.0148Z" fill="white"/>
</g>
</svg>
