<svg width="30" height="30" viewBox="0 0 30 30" fill="none" xmlns="http://www.w3.org/2000/svg">
<path d="M15.0347 3.75C8.75809 3.75 3.65234 8.8555 3.65234 15.1323C3.65234 21.4082 8.75784 26.5137 15.0347 26.5137C21.3105 26.5137 26.417 21.4082 26.417 15.1323C26.417 8.85647 21.3105 3.75 15.0347 3.75ZM15.0347 25.755C9.17709 25.755 4.41097 20.9899 4.41097 15.1323C4.41097 9.27378 9.17612 4.50863 15.0347 4.50863C20.8922 4.50863 25.6584 9.27378 25.6584 15.1313C25.6584 20.9889 20.8932 25.7541 15.0347 25.7541V25.755Z" fill="#6C7785" stroke="#6C7785" stroke-width="0.8"/>
<path d="M18.6985 17.6766C16.6777 19.6974 13.3901 19.6974 11.3684 17.6766C11.2204 17.5287 10.9805 17.5287 10.8317 17.6766C10.6837 17.8246 10.6837 18.0645 10.8317 18.2133C11.9904 19.3721 13.5115 19.9506 15.0326 19.9506C16.5546 19.9506 18.0756 19.3712 19.2336 18.2133C19.3815 18.0654 19.3815 17.8255 19.2336 17.6766C19.0857 17.5287 18.8457 17.5287 18.6969 17.6766H18.6985Z" fill="#6C7785" stroke="#6C7785" stroke-width="0.8"/>
<path d="M17.8969 13.1628C18.1065 13.1628 18.2762 12.993 18.2762 12.7834V11.7052C18.2762 11.4957 18.1065 11.3259 17.8969 11.3259C17.6873 11.3259 17.5176 11.4957 17.5176 11.7052V12.7834C17.5176 12.993 17.6873 13.1628 17.8969 13.1628Z" fill="#6C7785" stroke="#6C7785" stroke-width="0.8"/>
<path d="M12.1723 13.1628C12.3819 13.1628 12.5516 12.993 12.5516 12.7834V11.7052C12.5516 11.4957 12.3819 11.3259 12.1723 11.3259C11.9627 11.3259 11.793 11.4957 11.793 11.7052V12.7834C11.793 12.993 11.9627 13.1628 12.1723 13.1628Z" fill="#6C7785" stroke="#6C7785" stroke-width="0.8"/>
</svg>
