<?xml version="1.0" encoding="UTF-8"?>
<svg version="1.1" xmlns="http://www.w3.org/2000/svg" width="512" height="512">
<path d="M0 0 C1.01790619 0.00215515 2.03581238 0.0043103 3.08456421 0.00653076 C17.69363523 0.05620146 32.02575853 0.30709809 46.375 3.3125 C47.34985352 3.51117676 48.32470703 3.70985352 49.32910156 3.91455078 C97.7109774 14.03517194 141.69928269 35.9516877 177.375 70.3125 C178.3640332 71.26068604 178.3640332 71.26068604 179.37304688 72.22802734 C188.86130305 81.37247479 197.6012044 90.66984009 205.375 101.3125 C206.23306152 102.46355017 207.09113451 103.61459177 207.94921875 104.765625 C213.98736829 112.95680614 219.34595521 121.47054105 224.375 130.3125 C224.73948242 130.94430176 225.10396484 131.57610352 225.47949219 132.22705078 C247.08534998 169.97532572 256.85198095 212.74189997 256.6875 255.9375 C256.68534485 256.95540619 256.6831897 257.97331238 256.68096924 259.02206421 C256.63129854 273.63113523 256.38040191 287.96325853 253.375 302.3125 C253.07698486 303.77478027 253.07698486 303.77478027 252.77294922 305.26660156 C242.65232806 353.6484774 220.7358123 397.63678269 186.375 433.3125 C185.74287598 433.97185547 185.11075195 434.63121094 184.45947266 435.31054688 C175.31502521 444.79880305 166.01765991 453.5387044 155.375 461.3125 C154.22394983 462.17056152 153.07290823 463.02863451 151.921875 463.88671875 C143.73224019 469.92427396 135.22961724 475.30707302 126.375 480.3125 C125.66778809 480.7146875 124.96057617 481.116875 124.23193359 481.53125 C101.09654164 494.5566741 75.92537591 503.30551461 49.9375 508.625 C49.21860596 508.77235596 48.49971191 508.91971191 47.7590332 509.0715332 C33.08339502 511.86090125 18.55831162 512.66142619 3.64770508 512.62817383 C0.70811513 512.6250221 -2.2304558 512.64854926 -5.16992188 512.67382812 C-18.54306192 512.71848737 -31.43916711 511.51301542 -44.625 509.3125 C-46.33055054 509.03031616 -46.33055054 509.03031616 -48.07055664 508.74243164 C-91.33802759 500.97044532 -132.38793216 480.98345309 -165.625 452.3125 C-166.37007813 451.67828125 -167.11515625 451.0440625 -167.8828125 450.390625 C-181.38779833 438.57948485 -194.05918743 425.82889772 -204.625 411.3125 C-205.48149066 410.16255169 -206.33826433 409.01281411 -207.1953125 407.86328125 C-213.23534209 399.67315742 -218.61867614 391.16870382 -223.625 382.3125 C-224.0271875 381.60528809 -224.429375 380.89807617 -224.84375 380.16943359 C-237.8691741 357.03404164 -246.61801461 331.86287591 -251.9375 305.875 C-252.08485596 305.15610596 -252.23221191 304.43721191 -252.3840332 303.6965332 C-255.35789088 288.05024391 -255.99800362 272.57681954 -255.9375 256.6875 C-255.93534485 255.66959381 -255.9331897 254.65168762 -255.93096924 253.60293579 C-255.88129854 238.99386477 -255.63040191 224.66174147 -252.625 210.3125 C-252.42632324 209.33764648 -252.22764648 208.36279297 -252.02294922 207.35839844 C-241.90232806 158.9765226 -219.9858123 114.98821731 -185.625 79.3125 C-184.99287598 78.65314453 -184.36075195 77.99378906 -183.70947266 77.31445312 C-174.56502521 67.82619695 -165.26765991 59.0862956 -154.625 51.3125 C-153.47394983 50.45443848 -152.32290823 49.59636549 -151.171875 48.73828125 C-142.98224019 42.70072604 -134.47961724 37.31792698 -125.625 32.3125 C-124.91778809 31.9103125 -124.21057617 31.508125 -123.48193359 31.09375 C-100.34654164 18.0683259 -75.17537591 9.31948539 -49.1875 4 C-48.46860596 3.85264404 -47.74971191 3.70528809 -47.0090332 3.5534668 C-31.36274391 0.57960912 -15.88931954 -0.06050362 0 0 Z " fill="#8D60F0" transform="translate(255.625,-0.3125)"/>
<path d="M0 0 C8.99447514 6.74585635 8.99447514 6.74585635 12.9375 10 C13.87207031 10.76957031 14.80664062 11.53914062 15.76953125 12.33203125 C16.53644287 12.9655249 16.53644287 12.9655249 17.31884766 13.61181641 C19.17314606 15.14297248 21.02977426 16.67127294 22.88671875 18.19921875 C26.51841674 21.18787882 30.14856845 24.17841042 33.77832031 27.16943359 C37.35162049 30.11367588 40.92583228 33.05681098 44.5 36 C48.8207954 39.55800806 53.14134693 43.11631052 57.4609375 46.67578125 C65.29583374 53.13128829 73.13611384 59.57980785 81 66 C77.58253753 70.36569693 74.00844148 73.79665526 69.5625 77.125 C64.51999052 80.99005373 59.61422214 84.96434895 54.8125 89.125 C48.95908468 94.19045556 43.0133758 99.12477431 37 104 C30.40519682 109.38184865 23.82485194 114.78130564 17.25 120.1875 C16.54085449 120.76975342 15.83170898 121.35200684 15.10107422 121.9519043 C14.41287598 122.51820557 13.72467773 123.08450684 13.015625 123.66796875 C12.34595703 124.21888184 11.67628906 124.76979492 10.98632812 125.33740234 C8.4237583 127.4823262 5.92357409 129.69511718 3.43652344 131.92700195 C2 133 2 133 0 133 C-0.02505615 131.854104 -0.0501123 130.70820801 -0.07592773 129.52758789 C-0.16983106 125.29146402 -0.27009275 121.05551072 -0.37231445 116.81958008 C-0.4157282 114.98335753 -0.45739839 113.14709292 -0.49731445 111.31079102 C-0.55486169 108.67711689 -0.61859998 106.04365579 -0.68359375 103.41015625 C-0.70030624 102.58411392 -0.71701874 101.75807159 -0.73423767 100.90699768 C-0.47807433 97.14523247 -0.47807433 97.14523247 -2 94 C-32.29637424 91.62593263 -63.03396846 97.4687589 -86.75 117.3125 C-93.62847684 123.25668328 -100.16123021 129.73934199 -105.21484375 137.32421875 C-105.80394531 138.20722656 -106.39304687 139.09023438 -107 140 C-107.33 140 -107.66 140 -108 140 C-108.73320242 113.4960902 -104.0440203 89.16675439 -85.18432617 69.22680664 C-60.90935099 44.232879 -34.7012053 39.83833844 -1 39 C-0.67 26.13 -0.34 13.26 0 0 Z " fill="#FEFDFD" transform="translate(224,121)"/>
<path d="M0 0 C0.33 0 0.66 0 1 0 C1.65448313 27.34285087 -3.8285006 52.19081271 -22.80859375 72.77734375 C-41.89012643 92.51223371 -66.75541942 99.66508714 -93.5 100.5625 C-99.6875 100.7790625 -99.6875 100.7790625 -106 101 C-106.33 113.87 -106.66 126.74 -107 140 C-111.89226073 136.33080445 -116.52586614 132.78120428 -121.125 128.8125 C-125.64207338 124.94290255 -130.2367296 121.20637032 -134.9375 117.5625 C-140.41500456 113.30967487 -145.71012262 108.88334472 -150.95410156 104.34667969 C-156.2192988 99.79339644 -161.59417542 95.38525593 -167 91 C-168.85462711 89.4797282 -170.70879114 87.95889131 -172.5625 86.4375 C-177.6767099 82.2518066 -182.82966322 78.11608156 -188 74 C-185.44342215 70.6260129 -182.92011726 67.94558724 -179.5625 65.375 C-175.45853995 62.17161439 -171.45855122 58.8791944 -167.5 55.5 C-163.00554332 51.67422603 -158.45659724 47.93780573 -153.83203125 44.26953125 C-147.92730459 39.53760547 -142.11234426 34.69485625 -136.27734375 29.87744141 C-133.98983154 27.99161712 -131.69863723 26.11036296 -129.40625 24.23046875 C-128.65738525 23.61574707 -127.90852051 23.00102539 -127.13696289 22.36767578 C-125.72026268 21.20494059 -124.30283813 20.04308711 -122.88452148 18.88232422 C-118.71390353 15.45603752 -114.65540072 11.93735936 -110.66625977 8.30053711 C-109 7 -109 7 -107 7 C-106.97494385 8.145896 -106.9498877 9.29179199 -106.92407227 10.47241211 C-106.83016894 14.70853598 -106.72990725 18.94448928 -106.62768555 23.18041992 C-106.5842718 25.01664247 -106.54260161 26.85290708 -106.50268555 28.68920898 C-106.44513831 31.32288311 -106.38140002 33.95634421 -106.31640625 36.58984375 C-106.29969376 37.41588608 -106.28298126 38.24192841 -106.26576233 39.09300232 C-106.52192567 42.85476753 -106.52192567 42.85476753 -105 46 C-73.26860622 48.11799352 -43.1280684 42.37818167 -18.45703125 21.2109375 C-11.91935962 15.32807241 -6.59752007 9.3713792 -1.56640625 2.125 C-0.79103516 1.073125 -0.79103516 1.073125 0 0 Z " fill="#FEFEFD" transform="translate(395,251)"/>
</svg>
