<svg width="22" height="22" viewBox="0 0 22 22" fill="none" xmlns="http://www.w3.org/2000/svg">
<path d="M4.56391 8.878C2.74351 8.14984 1.83331 7.78576 1.83331 7.33334C1.83331 6.88092 2.74351 6.51684 4.56391 5.78868L7.13834 4.75891C8.95873 4.03075 9.86893 3.66667 11 3.66667C12.131 3.66667 13.0412 4.03075 14.8616 4.75891L17.4361 5.78868C19.2564 6.51684 20.1666 6.88092 20.1666 7.33334C20.1666 7.78576 19.2564 8.14984 17.4361 8.878L14.8616 9.90777C13.0412 10.6359 12.131 11 11 11C9.86893 11 8.95873 10.6359 7.13834 9.90777L4.56391 8.878Z" stroke="#2D2D2D" stroke-width="1.5"/>
<path d="M20.1666 11C20.1666 11 19.2564 11.8165 17.4361 12.5447L14.8616 13.5744C13.0412 14.3026 12.131 14.6667 11 14.6667C9.86893 14.6667 8.95873 14.3026 7.13834 13.5744L4.56391 12.5447C2.74351 11.8165 1.83331 11 1.83331 11" stroke="#2D2D2D" stroke-width="1.5" stroke-linecap="round"/>
<path d="M20.1666 14.6667C20.1666 14.6667 19.2564 15.4832 17.4361 16.2113L14.8616 17.2411C13.0412 17.9693 12.131 18.3333 11 18.3333C9.86893 18.3333 8.95873 17.9693 7.13834 17.2411L4.56391 16.2113C2.74351 15.4832 1.83331 14.6667 1.83331 14.6667" stroke="#2D2D2D" stroke-width="1.5" stroke-linecap="round"/>
</svg>
