<svg width="22" height="22" viewBox="0 0 22 22" fill="none" xmlns="http://www.w3.org/2000/svg">
<path d="M3.42979 18.8417C4.52944 20.1667 6.57609 20.1667 10.6694 20.1667H11.3305C15.4238 20.1667 17.4704 20.1667 18.5701 18.8417M3.42979 18.8417C2.33014 17.5167 2.70731 15.5051 3.46165 11.4819C3.99811 8.62081 4.26633 7.19027 5.28466 6.34513M3.42979 18.8417C3.42979 18.8417 3.42979 18.8417 3.42979 18.8417ZM18.5701 18.8417C19.6697 17.5167 19.2925 15.5051 18.5382 11.4819C18.0017 8.62081 17.7335 7.19027 16.7152 6.34513M18.5701 18.8417C18.5701 18.8417 18.5701 18.8417 18.5701 18.8417ZM16.7152 6.34513C15.6969 5.5 14.2414 5.5 11.3305 5.5H10.6694C7.75845 5.5 6.30298 5.5 5.28466 6.34513M16.7152 6.34513C16.7152 6.34513 16.7152 6.34513 16.7152 6.34513ZM5.28466 6.34513C5.28466 6.34513 5.28466 6.34513 5.28466 6.34513Z" stroke="#191621" stroke-width="1.3"/>
<path d="M13.75 10.0833L14.6667 15.5833" stroke="#191621" stroke-width="1.3" stroke-linecap="round"/>
<path d="M8.25 10.0833L7.33333 15.5833" stroke="#191621" stroke-width="1.3" stroke-linecap="round"/>
<path d="M8.25 5.49998V4.58331C8.25 3.06453 9.48122 1.83331 11 1.83331C12.5188 1.83331 13.75 3.06453 13.75 4.58331V5.49998" stroke="#191621" stroke-width="1.3" stroke-linecap="round"/>
</svg>
