<svg width="22" height="22" viewBox="0 0 22 22" fill="none" xmlns="http://www.w3.org/2000/svg">
<path d="M8.25177 6.41666C8.26287 4.42289 8.35128 3.34314 9.05563 2.63878C9.86109 1.83333 11.1575 1.83333 13.7502 1.83333L14.6668 1.83333C17.2596 1.83333 18.5559 1.83333 19.3614 2.63878C20.1668 3.44424 20.1668 4.7406 20.1668 7.33333L20.1668 14.6667C20.1668 17.2594 20.1668 18.5557 19.3614 19.3612C18.5559 20.1667 17.2596 20.1667 14.6668 20.1667H13.7502C11.1575 20.1667 9.86109 20.1667 9.05563 19.3612C8.35128 18.6569 8.26287 17.5771 8.25177 15.5833" stroke="#2D2D2D" stroke-width="1.5" stroke-linecap="round"/>
<path d="M13.75 11L1.83333 11M1.83333 11L5.04167 8.25M1.83333 11L5.04167 13.75" stroke="#2D2D2D" stroke-width="1.5" stroke-linecap="round" stroke-linejoin="round"/>
</svg>
